<?xml version="1.0" encoding="UTF-8"?>
<svg id="a" xmlns="http://www.w3.org/2000/svg" viewBox="0 0 1080 540" width="1080" height="540">
   <defs>
      <style>
        .c{fill:#ee4c2a;}
        .d{fill:#fff;}
        .e{fill:#212529;}
      
        @media (prefers-color-scheme: dark) {
            .d{fill:#0d1117;}
            .e{fill:#fff;}
        }
      </style>
   </defs>
   <rect id="b" class="d" width="1080" height="540"/>
   <g>
      <path class="e" d="M266.4,326.15h-16.8v-109h-43.8v-16h104.4v16h-43.8v109Z"/>
      <path class="e" d="M347.4,329.15c-26,0-44.2-19.2-44.2-48.8s19-49,45.2-49,44,19.4,44,49-19.2,48.8-45,48.8Zm.2-83c-18.4,0-28.2,14-28.2,34s10.4,34.2,28.6,34.2,28.2-14,28.2-33.8-10.4-34.4-28.6-34.4Z"/>
      <path class="e" d="M414.8,326.15v-92l16.4-2.6v16.2c6.4-10.2,13.8-16.2,25.6-16.2,6.6,0,12.2,1.6,17.2,4.6l-4.2,15.4c-5-3-10-4.2-14.6-4.2-8.8,0-17,6.2-24,19v59.8h-16.4Z"/>
      <path class="e" d="M528,329.15c-28.8,0-45-19.8-45-48.8s19.6-48.8,46.2-48.8c12,0,21,2.4,29.6,7.8l-4.2,15c-7.4-5-16-7.6-25.4-7.6-19,0-29.2,12.6-29.2,33.4s11.4,33.8,28.8,33.8c9.6,0,19-2.6,26.4-7.6l3,15.2c-8.2,5-18.4,7.6-30.2,7.6Z"/>
      <path class="e" d="M639.6,268.55c0-16-6-21.2-18-21.2-10.6,0-19.6,5-25,10v68.8h-16.4V191.35l16.4-2.6v56.2c8.6-8.6,19-13.4,30.8-13.4,17.6,0,28.6,11.6,28.6,31.6v63h-16.4v-57.6Z"/>
      <path class="c" d="M743,268.55c0-16-6-21.2-18-21.2-10.6,0-19.6,5-25,10v68.8h-16.4V191.35l16.4-2.6v56.2c8.6-8.6,19-13.4,30.8-13.4,17.6,0,28.6,11.6,28.6,31.6v63h-16.4v-57.6Z"/>
      <path class="c" d="M863.8,188.75v137.4h-16.4v-8.4c-6.6,6.2-14.6,11.4-25.6,11.4-25.8,0-40.8-20.8-40.8-48.4s19.2-49.2,46.6-49.2c6.6,0,14,1.2,19.8,3v-43.2l16.4-2.6Zm-36.8,57.6c-18.6,0-29,15.4-29,34,0,20.2,10.2,33.6,27.2,33.6,8.6,0,16-3.4,22.2-8.8v-52.2c-5.4-4.4-12.2-6.6-20.4-6.6Z"/>
   </g>
</svg>